<?xml version="1.0" encoding="UTF-8" standalone="no" ?>
<!DOCTYPE svg PUBLIC "-//W3C//DTD SVG 1.1//EN" "http://www.w3.org/Graphics/SVG/1.1/DTD/svg11.dtd">
<svg xmlns="http://www.w3.org/2000/svg" xmlns:xlink="http://www.w3.org/1999/xlink" version="1.1" width="640" height="640" viewBox="0 0 640 640" xml:space="preserve">
<desc>Created with Fabric.js 5.3.0</desc>
<defs>
</defs>
<g transform="matrix(-8.1168380952 0 0 8.1168380952 320 320)" id="xh-ttG0hxBiN-kPdoLAfF"  >
<path style="stroke: rgb(38,38,38); stroke-width: 0; stroke-dasharray: none; stroke-linecap: butt; stroke-dashoffset: 0; stroke-linejoin: miter; stroke-miterlimit: 4; fill: rgb(78,134,225); fill-rule: nonzero; opacity: 1;"  transform=" translate(0, 0)" d="M 0 -36.40501 C 20.09556 -36.40501 36.40501 -20.09557 36.40501 0 C 36.40501 20.09556 20.09557 36.40501 0 36.40501 C -20.09556 36.40501 -36.40501 20.09557 -36.40501 0 C -36.40501 -20.09556 -20.09557 -36.40501 0 -36.40501 z" stroke-linecap="round" />
</g>
<g transform="matrix(-1.125436373 0 0 1.0662505997 320 333.554440423)" id="9BhesYMJ95zLDyHx9VPVS"  >
<path style="stroke: rgb(0,0,0); stroke-width: 0; stroke-dasharray: none; stroke-linecap: butt; stroke-dashoffset: 0; stroke-linejoin: miter; stroke-miterlimit: 4; fill: rgb(250,250,250); fill-rule: nonzero; opacity: 1;"  transform=" translate(-0.000005, -0.0000010981)" d="M -211.14903 -6.84124 C -211.14903 -6.84124 -102.66211000000001 -89.84465 -43.68600000000001 -90.57275 C -8.440390000000008 -91.00788 56.65348999999999 -62.13417 118.65393 -37.92915 C 160.39818 -21.63216 211.14904 -6.841239999999999 211.14904 -6.841239999999999 C 211.14904 -6.841239999999999 106.30262000000002 89.84548 -22.571099999999973 90.57358 C -151.44481999999996 91.30168 -211.14902999999998 -6.841239999999999 -211.14902999999998 -6.841239999999999 z" stroke-linecap="round" />
</g>
<g transform="matrix(-2.1333768908 0 0 2.1333768908 364.3747522236 314.6416071111)" id="6HFZaO8gAItyEyvNDJxI7"  >
<path style="stroke: rgb(15,174,241); stroke-width: 0; stroke-dasharray: none; stroke-linecap: butt; stroke-dashoffset: 0; stroke-linejoin: miter; stroke-miterlimit: 4; fill: rgb(38,38,38); fill-rule: nonzero; opacity: 1;"  transform=" translate(0, 0)" d="M 0 -36.40501 C 20.09556 -36.40501 36.40501 -20.09557 36.40501 0 C 36.40501 20.09556 20.09557 36.40501 0 36.40501 C -20.09556 36.40501 -36.40501 20.09557 -36.40501 0 C -36.40501 -20.09556 -20.09557 -36.40501 0 -36.40501 z" stroke-linecap="round" />
</g>
<g transform="matrix(-0.4327994174 0 0 0.4327994174 308.4396069266 273.8326647603)" id="9hFcvqbdMbjj9QMkFJWdb"  >
<path style="stroke: rgb(0,0,0); stroke-width: 0; stroke-dasharray: none; stroke-linecap: butt; stroke-dashoffset: 0; stroke-linejoin: miter; stroke-miterlimit: 4; fill: rgb(250,250,250); fill-rule: nonzero; opacity: 1;"  transform=" translate(0, 0)" d="M 0 -71.42857 C 39.42857 -71.42857 71.42857 -39.42856999999999 71.42857 0 C 71.42857 39.42857 39.42856999999999 71.42857 0 71.42857 C -39.42857 71.42857 -71.42857 39.42856999999999 -71.42857 0 C -71.42857 -39.42857 -39.42856999999999 -71.42857 0 -71.42857 z" stroke-linecap="round" />
</g>
<g transform="matrix(-1.125436373 0 0 1.0662505997 320 333.554440423)" id="XzTUsAA-RMP0CIlR8n_cn"  >
<path style="stroke: rgb(78,134,225); stroke-width: 20; stroke-dasharray: none; stroke-linecap: butt; stroke-dashoffset: 0; stroke-linejoin: miter; stroke-miterlimit: 4; fill: none; fill-rule: nonzero; opacity: 1;"  transform=" translate(-0.000005, -0.0000010981)" d="M -211.14903 -6.84124 C -211.14903 -6.84124 -102.66211000000001 -89.84465 -43.68600000000001 -90.57275 C -8.440390000000008 -91.00788 56.65348999999999 -62.13417 118.65393 -37.92915 C 160.39818 -21.63216 211.14904 -6.841239999999999 211.14904 -6.841239999999999 C 211.14904 -6.841239999999999 106.30262000000002 89.84548 -22.571099999999973 90.57358 C -151.44481999999996 91.30168 -211.14902999999998 -6.841239999999999 -211.14902999999998 -6.841239999999999 z" stroke-linecap="round" />
</g>
<g transform="matrix(-0.7329242073 0 0 0.7329242073 177.1861158416 185.6136337431)" id="xy-nNBTDqXK2Wn3gtKhk9"  >
<path style="stroke: rgb(0,0,0); stroke-width: 0; stroke-dasharray: none; stroke-linecap: butt; stroke-dashoffset: 0; stroke-linejoin: miter; stroke-miterlimit: 4; fill: rgb(250,250,250); fill-rule: nonzero; opacity: 1;"  transform=" translate(0, 0)" d="M 0 -71.42857 C 39.42857 -71.42857 71.42857 -39.42856999999999 71.42857 0 C 71.42857 39.42857 39.42856999999999 71.42857 0 71.42857 C -39.42857 71.42857 -71.42857 39.42856999999999 -71.42857 0 C -71.42857 -39.42857 -39.42856999999999 -71.42857 0 -71.42857 z" stroke-linecap="round" />
</g>
</svg>